<svg width="24" height="24" viewBox="0 0 24 24" xmlns="http://www.w3.org/2000/svg">
    <g fill="none" fill-rule="evenodd">
        <path d="M0 0h24v24H0z"/>
        <g fill="#F58220">
            <path d="M11.944 22.866c1.487.002 2.981-.4 4.237-1.205a7.37 7.37 0 0 0 1.994-1.711c.37-.396.635-.865.92-1.322.471-.916.821-1.905.917-2.937a8.501 8.501 0 0 0-.306-3.439 8.553 8.553 0 0 0-1.118-2.368c-.67-.99-1.537-1.865-2.572-2.467-.233-.145-.433-.292-.669-.436-.347-.24-.907-.54-1.319-.22-.418.412-.399 1.06-.435 1.613-.002 3.914-.02 7.827-.013 11.741-.024.329.078.727-.26.92-.348.211-.739.349-1.146.413-.335.096-.65-.05-.976-.11-.278-.097-.581-.218-.784-.412-.295-.26-.118-.718-.166-1.082-.005-4.004.01-8.008-.008-12.01-.058-.43-.106-.956-.507-1.212a.682.682 0 0 0-.583-.002c-.455.133-.842.518-1.228.747A7.565 7.565 0 0 0 6.11 8.836c-.461.465-.827 1.012-1.164 1.574-.482.876-.849 1.82-1.015 2.809a8.265 8.265 0 0 0-.042 2.772 8.255 8.255 0 0 0 1.702 3.843c.87 1.109 2.067 1.922 3.357 2.474.956.353 1.972.57 2.996.558zM11.975 4.53c.11-.004.223.012.328-.015.067-.004.127-.054.198-.042.046-.036.097-.074.155-.076.053-.033.137-.021.164-.093.058-.02.106-.054.16-.084.05-.024.088-.078.136-.11.075-.033.099-.118.17-.154.037-.046.07-.094.116-.133.046-.067.093-.133.12-.21.047-.037.055-.101.087-.15.024-.055.057-.103.069-.16a.288.288 0 0 0 .04-.16c.026-.07.007-.152.057-.215-.004-.162.006-.327-.006-.487-.052-.066-.026-.154-.051-.23a.34.34 0 0 0-.053-.16c-.04-.156-.143-.285-.216-.427-.035-.047-.054-.096-.106-.128-.05-.07-.124-.117-.163-.194-.072-.004-.108-.077-.163-.112-.038-.04-.098-.058-.14-.091-.052-.021-.077-.075-.141-.073-.09-.038-.178-.095-.278-.113-.055-.026-.1-.063-.166-.046-.071-.002-.14-.018-.213-.018-.123-.014-.248.002-.37.007-.075.028-.165-.016-.23.044-.078.038-.167.043-.242.087-.049.038-.117.035-.155.085-.066.012-.112.067-.174.09a4.338 4.338 0 0 0-.156.136c-.068-.009-.079.077-.126.112-.05.036-.062.096-.11.131-.088.1-.165.215-.217.34-.008.06-.062.093-.064.155-.027.058-.053.107-.065.168-.015.062.003.134-.042.19.007.147-.03.295 0 .44-.003.079-.006.158.034.228a.514.514 0 0 0 .073.268c-.006.068.053.092.063.151.021.051.035.106.07.15.031.102.119.165.182.245.04.036.052.1.108.126.04.043.07.094.129.115.034.055.107.068.146.121.063.057.16.048.21.122.044.031.112.025.153.052.044.024.102.039.15.061.068.005.122.053.192.042.106.033.226.007.337.015z"/>
            <path d="M15.947 1.249C16.151.8 16.69.459 17.148.8c.907.578 1.594 1.455 2.38 2.189 1.024.994 1.957 2.106 2.597 3.391a10.155 10.155 0 0 1 1.106 4.24c.155 1.492-.096 3.02-.54 4.445-.914 2.68-2.801 5.054-5.304 6.41-3.462 1.956-7.946 1.826-11.324-.247-3.215-1.92-5.3-5.537-5.465-9.266-.086-1.713.185-3.446.873-5.025.665-1.578 1.773-2.93 3.01-4.103.7-.705 1.348-1.482 2.18-2.027.352-.27.92-.22 1.108.208.418.66.706 1.481.682 2.285-.103 1.324-1.263 2.136-2.188 2.922-1.097.904-1.862 2.134-2.496 3.395a8.695 8.695 0 0 0-.83 3.953c.007 2.952 1.463 5.88 3.852 7.628 1.567 1.097 3.464 1.73 5.388 1.668 2.63-.034 5.15-1.398 6.734-3.472a9.679 9.679 0 0 0 1.988-6.493c-.063-1.41-.503-2.778-1.158-4.001a9.924 9.924 0 0 0-2.41-2.882c-.728-.677-1.617-1.314-1.851-2.33-.176-.834.11-1.689.467-2.44z"/>
        </g>
    </g>
</svg>
